<svg xmlns="http://www.w3.org/2000/svg" width="420" height="226" fill="none">
  <path fill="currentColor" d="M160 39.4c-1.7-2.4-3.9-4.5-6.2-6.5-5.1-4.2-11.6-8.1-15.9-13.2-3.3-3.9-6-9.6-4.9-15 .4-2 2.2-3.8 4-4.6 0 0-1.9.1-3.9.5-11 2.5-14.2 16.8-7.8 25.7 1.7 2.4 3.9 4.5 6.2 6.5 5.1 4.2 11.6 8.1 15.9 13.2 3.3 3.9 6 9.6 4.9 15-.4 2-2.2 3.8-4 4.6 0 0 1.9-.1 3.9-.5 11-2.5 14.2-16.8 7.8-25.7Z"/>
  <path fill="currentColor" d="M152.7 18.2a8.5 8.5 0 1 0 0-17 8.5 8.5 0 0 0 0 17ZM132.6 64.6a8.5 8.5 0 1 0 0-17 8.5 8.5 0 0 0 0 17Z"/>
  <path fill="currentColor" d="M23.5 30.6c14.6.5 21.9 6 21.9 16.3 0 3.1-.5 5.8-1.5 8.1s-2.2 4-3.6 5.2c-1.4 1.2-3.3 2.1-5.5 2.8-2.3.7-4.3 1.1-6.1 1.3-1.8.2-3.9.2-6.3.2H.4v-63H23c6.5 0 11.6 1.1 15.2 3.2 3.6 2.1 5.4 5.8 5.4 11 0 5-1.7 8.7-5 11-3.3 2.3-8.4 3.7-15.1 3.9Zm2.5-4.3c2.1-1.4 3.1-3.5 3.1-6.3s-1-5-3.1-6.8c-2-1.8-4.6-2.7-7.7-2.7H15v17.9c5.2.1 8.9-.7 11-2.1Zm-11.1 29h3.4c3.3 0 6.1-.9 8.4-2.7 2.3-1.8 3.5-4.9 3.5-9.3 0-3.7-1.1-6.3-3.3-7.9-2.2-1.5-6.2-2.3-12-2.4v22.3Zm61.4-24.7c1.7 0 3.2.1 4.4.2 1.2.1 2.3.4 3.4.9s2 1 2.7 1.6c.7.6 1.5 1.6 2.2 2.9.7 1.3 1.4 2.7 1.9 4.1.5 1.5 1.1 3.5 1.8 5.9.7 2.5 1.3 5.1 1.9 7.7.6 2.7 1.3 6 2.2 10 .1.2.1.3.1.5H81.2L77 41.8c-.7-3.5-1.8-5.8-3.3-7-1.6-1.2-4.3-1.8-8.2-1.8v31.4H51v-63h24.8c12.8 0 19.2 4.7 19.2 14 0 4.9-1.6 8.6-4.8 11.2-3.2 2.7-7.8 4-13.9 4ZM65.5 10.4v18.1c6-.1 10.1-.8 12.4-2.1 2.3-1.3 3.4-3.6 3.4-6.8 0-3.4-1-5.8-2.9-7.1-1.9-1.3-4.6-2-8-2l-4.9-.1Zm51 54H102v-63h14.5v63Zm47.8-63h38v12.3h-11.7v50.7H176V13.8h-11.7V1.4Zm62.9 64.5c-5.2 0-9.7-1.5-13.3-4.5-3.7-3-6.3-6.9-8.1-11.8-1.7-4.9-2.6-10.4-2.6-16.6 0-6.2.9-11.8 2.6-16.7 1.7-4.9 4.4-8.8 8.1-11.8 3.7-3 8.1-4.5 13.3-4.5 7.7 0 13.6 3.1 17.6 9.3 4.1 6.2 6.1 14.1 6.1 23.7s-2 17.5-6.1 23.7c-4.1 6.1-10 9.2-17.6 9.2Zm0-13.8c2.6 0 4.7-1.6 6.3-4.8 1.6-3.2 2.3-8 2.3-14.4s-.8-11.1-2.3-14.4c-1.6-3.2-3.7-4.8-6.3-4.8-2.8 0-4.9 1.6-6.5 4.8-1.6 3.2-2.3 8-2.3 14.4s.8 11.2 2.3 14.4c1.5 3.2 3.7 4.8 6.5 4.8Zm44.1-50.7v49.4h17.5v13.6h-32v-63h14.5ZM22.5 113.6v4.5l10.2 3.5c-.3 3.3-1.2 5.8-2.6 7.6-1.7 2-3.7 3-6.1 3-2.7 0-4.9-1.6-6.5-4.8-1.6-3.2-2.4-8-2.4-14.4s.8-11.2 2.5-14.4c1.6-3.2 3.9-4.8 6.8-4.8 3.2 0 5.5 1.9 6.8 5.7H46c-1.2-5.9-3.6-10.7-7.2-14.2C35.1 81.8 30.5 80 25 80c-8.2 0-14.4 3.1-18.6 9.3-4.3 6.2-6.4 14-6.4 23.6 0 6.1.8 11.6 2.5 16.5 1.6 4.9 4.1 8.8 7.5 11.7 3.3 2.9 7.2 4.3 11.7 4.3 2.3-.1 4.4-.5 6.1-1.4 1.7-.8 3.1-1.9 4-3.3.9-1.4 1.6-2.9 2.2-4.6.6-1.7.9-3.4.9-5.2 0-1.1 0-2.2-.1-3.3l5 16.8h7.1v-30.9H22.5v.1Zm54.2 32.3c-5.2 0-9.7-1.5-13.3-4.5-3.7-3-6.3-6.9-8.1-11.8-1.7-4.9-2.6-10.4-2.6-16.6 0-6.2.9-11.8 2.6-16.7 1.7-4.9 4.4-8.8 8.1-11.8 3.7-3 8.1-4.5 13.3-4.5 7.7 0 13.6 3.1 17.6 9.3 4.1 6.2 6.1 14.1 6.1 23.7s-2 17.5-6.1 23.7c-4.1 6.1-9.9 9.2-17.6 9.2Zm0-13.8c2.6 0 4.7-1.6 6.3-4.8 1.6-3.2 2.3-8 2.3-14.4s-.8-11.1-2.3-14.4c-1.6-3.2-3.7-4.8-6.3-4.8-2.8 0-4.9 1.6-6.5 4.8-1.6 3.2-2.3 8-2.3 14.4s.8 11.2 2.3 14.4c1.6 3.2 3.7 4.8 6.5 4.8Zm53.2 13.8c-5.2 0-9.7-1.5-13.3-4.5-3.7-3-6.3-6.9-8.1-11.8-1.7-4.9-2.6-10.4-2.6-16.6 0-6.2.9-11.8 2.6-16.7 1.7-4.9 4.4-8.8 8.1-11.8 3.7-3 8.1-4.5 13.3-4.5 7.7 0 13.6 3.1 17.6 9.3 4.1 6.2 6.1 14.1 6.1 23.7s-2 17.5-6.1 23.7c-4.1 6.1-10 9.2-17.6 9.2Zm0-13.8c2.6 0 4.7-1.6 6.3-4.8 1.6-3.2 2.3-8 2.3-14.4s-.8-11.1-2.3-14.4c-1.6-3.2-3.7-4.8-6.3-4.8-2.8 0-4.9 1.6-6.5 4.8-1.6 3.2-2.3 8-2.3 14.4s.8 11.2 2.3 14.4c1.5 3.2 3.7 4.8 6.5 4.8Zm45.6 12.3h-15.9v-63h15.9c10.7.1 18.3 2.9 22.8 8.4s6.8 13.1 6.8 22.9c0 4.7-.5 9-1.5 12.6-1 3.7-2.6 7-4.8 9.9-2.2 2.9-5.2 5.2-9.1 6.8-4 1.6-8.7 2.4-14.2 2.4Zm-1.4-53.9v44.8c6.2-.1 10.5-2.1 12.9-6.1 2.4-3.9 3.6-9.5 3.6-16.6 0-3.4-.2-6.3-.7-8.8-.5-2.5-1.3-4.8-2.5-6.8-1.2-2.1-2.9-3.7-5.1-4.8-2.3-1-5-1.6-8.2-1.7Zm68.9 53.9h-14.5v-63h34.7v12.3H243v15.8h18.3v7.9H243v27Zm47.7 1.5c-5.2 0-9.7-1.5-13.3-4.5-3.7-3-6.3-6.9-8.1-11.8-1.7-4.9-2.6-10.4-2.6-16.6 0-6.2.9-11.8 2.6-16.7 1.7-4.9 4.4-8.8 8.1-11.8 3.7-3 8.1-4.5 13.3-4.5 7.7 0 13.6 3.1 17.6 9.3 4.1 6.2 6.1 14.1 6.1 23.7s-2 17.5-6.1 23.7c-4 6.1-9.9 9.2-17.6 9.2Zm0-13.8c2.6 0 4.7-1.6 6.3-4.8 1.6-3.2 2.3-8 2.3-14.4s-.8-11.1-2.3-14.4c-1.6-3.2-3.7-4.8-6.3-4.8-2.8 0-4.9 1.6-6.5 4.8-1.6 3.2-2.3 8-2.3 14.4s.8 11.2 2.3 14.4c1.6 3.2 3.7 4.8 6.5 4.8Zm53.2 13.8c-5.2 0-9.7-1.5-13.3-4.5-3.7-3-6.3-6.9-8.1-11.8-1.7-4.9-2.6-10.4-2.6-16.6 0-6.2.9-11.8 2.6-16.7 1.7-4.9 4.4-8.8 8.1-11.8 3.7-3 8.1-4.5 13.3-4.5 7.7 0 13.6 3.1 17.6 9.3 4.1 6.2 6.1 14.1 6.1 23.7s-2 17.5-6.1 23.7c-4.1 6.1-9.9 9.2-17.6 9.2Zm0-13.8c2.6 0 4.7-1.6 6.3-4.8 1.6-3.2 2.3-8 2.3-14.4s-.8-11.1-2.3-14.4c-1.6-3.2-3.7-4.8-6.3-4.8-2.8 0-4.9 1.6-6.5 4.8-1.6 3.2-2.3 8-2.3 14.4s.8 11.2 2.3 14.4c1.6 3.2 3.7 4.8 6.5 4.8Zm45.6 12.3h-15.9v-63h15.9c10.7.1 18.3 2.9 22.8 8.4s6.8 13.1 6.8 22.9c0 4.7-.5 9-1.5 12.6-1 3.7-2.6 7-4.8 9.9-2.2 2.9-5.2 5.2-9.1 6.8-4 1.6-8.7 2.4-14.2 2.4Zm-1.4-53.9v44.8c6.2-.1 10.5-2.1 12.9-6.1 2.4-3.9 3.6-9.5 3.6-16.6 0-3.4-.2-6.3-.7-8.8-.5-2.5-1.3-4.8-2.5-6.8-1.2-2.1-2.9-3.7-5.1-4.8-2.3-1-5-1.6-8.2-1.7Z"/>
  <path fill="currentColor" d="M0 176.9v-1.2c0-5 1.9-8.8 5.8-11.6 3.9-2.8 9.2-4.1 15.9-4.1 7.1 0 12.5 1.7 16.2 5 3.6 3.3 5.4 7.9 5.4 13.8 0 3.8-.6 7.1-1.9 9.9-1.3 2.9-2.9 5.1-5 6.8-2.1 1.7-4.4 3.2-6.9 4.5-2.6 1.3-5.2 2.4-7.9 3.3-2.7.9-5.2 1.8-7.6 2.7-2.4.9-4.5 2-6.4 3.4-1.9 1.4-3.2 2.9-4 4.6 1.8-1.4 3.6-2.3 5.3-2.7 1.7-.4 4.3-.7 7.7-.7h25.3v13.8H.2v-12.1c0-4.6 1.1-8.4 3.2-11.5 2.1-3.1 4.7-5.5 7.7-7.1 3-1.6 6-3 9-4.2 3-1.2 5.6-2.7 7.7-4.4 2.1-1.7 3.2-3.8 3.2-6.2 0-2.2-.8-4-2.2-5.2-1.5-1.3-3.7-1.9-6.6-1.9-2.5 0-4.5.5-6.1 1.4-1.6.9-2.7 2.1-3.1 3.7H0ZM70.1 160c3.7 0 6.9.6 9.7 1.7 2.8 1.1 5.1 2.7 6.8 4.6 1.8 2 3.2 4.4 4.3 7.2 1.1 2.9 1.9 5.8 2.3 9 .4 3.1.7 6.6.7 10.4 0 3.8-.2 7.3-.7 10.4-.5 3.1-1.2 6.1-2.3 9-1.1 2.9-2.6 5.3-4.3 7.2-1.8 2-4 3.5-6.8 4.6-2.8 1.1-6 1.7-9.7 1.7-4.6 0-8.4-.8-11.7-2.5-3.2-1.7-5.7-4.1-7.4-7.2-1.7-3.1-3-6.6-3.7-10.3-.8-3.7-1.1-8.1-1.1-12.9 0-4.9.4-9.2 1.1-12.9.7-3.7 2-7.2 3.7-10.3 1.7-3.1 4.2-5.5 7.4-7.2 3.3-1.7 7.1-2.5 11.7-2.5Zm-8.6 40.2c.9 8 3.8 12 8.6 12 5.9 0 8.9-6.4 8.9-19.3 0-2.3-.1-4.4-.3-6.3l-.3-2.2c-1-7.2-3.8-10.8-8.4-10.8-6 0-9 6.4-9 19.3 0 1.3.1 3 .2 5l.3 2.3Zm48.7 9.1c.5 1.7 1.6 3 3.3 3.9 1.7.9 3.9 1.4 6.5 1.4 3.2 0 5.7-.7 7.6-2.2 1.9-1.5 2.8-3.6 2.8-6.3 0-6.6-7.4-9.9-22.1-9.9v-9.1c13.3 0 19.9-3.3 19.9-9.9 0-1.8-.8-3.3-2.3-4.4-1.6-1.1-3.6-1.7-6.2-1.7s-4.6.5-6.1 1.6-2.3 2.4-2.6 4.1H98.8c-.2-.9-.3-1.9-.3-3 0-4.4 1.8-7.8 5.4-10.3 3.6-2.5 8.7-3.7 15.5-3.7 6.9 0 12.3 1.4 16.3 4.3s6 6.9 6 12.1c0 4.3-1.4 7.8-4.2 10.4-2.8 2.6-6.6 4.2-11.4 4.9 5.4.6 9.7 2.2 12.9 4.9 3.2 2.7 4.8 6.4 4.8 11.3 0 6-2.2 10.5-6.7 13.5-4.4 3-10.2 4.5-17.2 4.5-7.2 0-12.9-1.3-17-4s-6.2-6.6-6.2-11.9v-.7h13.5v.2Zm60.7-49.3c3.7 0 6.9.6 9.7 1.7 2.8 1.1 5.1 2.7 6.8 4.6 1.8 2 3.2 4.4 4.3 7.2 1.1 2.9 1.9 5.8 2.3 9 .4 3.1.7 6.6.7 10.4 0 3.8-.2 7.3-.7 10.4-.5 3.1-1.2 6.1-2.3 9-1.1 2.9-2.6 5.3-4.3 7.2-1.8 2-4 3.5-6.8 4.6-2.8 1.1-6 1.7-9.7 1.7-4.6 0-8.4-.8-11.7-2.5-3.2-1.7-5.7-4.1-7.4-7.2-1.7-3.1-3-6.6-3.7-10.3-.8-3.7-1.1-8.1-1.1-12.9 0-4.9.4-9.2 1.1-12.9.7-3.7 2-7.2 3.7-10.3 1.7-3.1 4.2-5.5 7.4-7.2 3.3-1.7 7.2-2.5 11.7-2.5Zm-8.6 40.2c.9 8 3.8 12 8.6 12 5.9 0 8.9-6.4 8.9-19.3 0-2.3-.1-4.4-.3-6.3l-.3-2.2c-1-7.2-3.8-10.8-8.4-10.8-6 0-9 6.4-9 19.3 0 1.3.1 3 .2 5l.3 2.3Z"/>
</svg>