<svg xmlns="http://www.w3.org/2000/svg" width="199" height="42"><path fill="currentColor" fill-rule="evenodd" d="M85.587 17.929H72.739V5.409h-6.248v30.727h6.248V23.335h12.848v12.8h6.272V5.41h-6.272v12.52Zm53.371 11.736c-1.038 1.116-2.383 1.673-4.037 1.673-1.7 0-3.077-.55-4.13-1.65-1.053-1.1-1.58-2.562-1.58-4.388 0-1.825.515-3.287 1.545-4.387 1.03-1.1 2.394-1.65 4.095-1.65 1.7 0 3.07.558 4.107 1.673 1.038 1.116 1.556 2.57 1.556 4.364 0 1.795-.518 3.25-1.556 4.365Zm2.551-14.299c-1.615-.944-3.444-1.416-5.488-1.416-1.482 0-2.82.23-4.013.69-1.194.46-2.157 1.12-2.89 1.978V3.816l-5.945 1.593v30.727h4.938l.375-2.879c.733 1.092 1.774 1.95 3.124 2.575 1.35.623 2.835.936 4.458.936 2.044 0 3.865-.472 5.464-1.416 1.6-.944 2.844-2.29 3.733-4.037.89-1.747 1.334-3.736 1.334-5.968 0-2.23-.445-4.216-1.334-5.956-.89-1.739-2.141-3.08-3.756-4.025Zm-29.2 10.81c0 2.909-1.763 5.396-4.976 5.396-3.212 0-4.834-2.151-4.834-5.115V14.652h-5.99v12.765c0 5.52 3.726 9.35 8.859 9.35s7.497-3.51 7.497-3.51l.45 2.879h4.937V14.652h-5.944v11.524Zm79.003 3.56c-1.068 1.162-2.453 1.743-4.153 1.743-1.685 0-3.063-.581-4.13-1.744-1.07-1.162-1.604-2.624-1.604-4.388 0-1.778.53-3.237 1.591-4.376 1.061-1.139 2.442-1.708 4.143-1.708 1.731 0 3.124.565 4.177 1.696 1.053 1.132 1.58 2.594 1.58 4.388 0 1.764-.535 3.226-1.604 4.388Zm6.202-10.275c-.991-1.723-2.391-3.073-4.2-4.048-1.81-.975-3.862-1.463-6.155-1.463-2.294 0-4.342.488-6.144 1.463-1.801.975-3.198 2.325-4.189 4.048-.99 1.725-1.486 3.686-1.486 5.886 0 2.216.504 4.186 1.51 5.91 1.006 1.723 2.402 3.073 4.189 4.048 1.786.975 3.826 1.463 6.12 1.463 2.308 0 4.364-.488 6.166-1.463 1.802-.975 3.198-2.329 4.189-4.06.99-1.732 1.486-3.698 1.486-5.898 0-2.2-.495-4.161-1.486-5.886Zm-32.402 10.274c-1.069 1.163-2.454 1.744-4.154 1.744-1.685 0-3.062-.581-4.13-1.744-1.07-1.162-1.604-2.624-1.604-4.388 0-1.778.53-3.237 1.592-4.376 1.06-1.139 2.441-1.708 4.142-1.708 1.732 0 3.124.565 4.177 1.696 1.053 1.132 1.58 2.594 1.58 4.388 0 1.764-.535 3.226-1.603 4.388Zm2-14.322c-1.81-.975-3.86-1.463-6.154-1.463-2.293 0-4.341.488-6.143 1.463-1.802.975-3.199 2.325-4.19 4.048-.99 1.725-1.485 3.686-1.485 5.886 0 2.216.503 4.186 1.51 5.91 1.006 1.723 2.402 3.073 4.188 4.048 1.786.975 3.827 1.463 6.12 1.463 2.309 0 4.364-.488 6.167-1.463 1.801-.975 3.197-2.329 4.188-4.06.991-1.732 1.486-3.698 1.486-5.898 0-2.2-.495-4.161-1.486-5.886-.99-1.723-2.39-3.073-4.2-4.048ZM52.607 10.042l-3.903 3.904-20.185-5.409L32.466 1.7l20.14 8.342Zm-4.376 24.55-20.061 5.374V9.841l20.06 5.375v19.375Zm-21.41 5.374-10.36-2.775v-7.959l-1.349-.12v7.717L6.76 34.591V15.216l8.352-2.238v7.718l1.35-.12v-7.96L26.82 9.842v30.125ZM2.382 10.042 22.522 1.7l3.948 6.837-20.184 5.409-3.904-3.904Zm25.112-2.43L23.1 0 0 9.568l5.41 5.41v20.649l22.084 5.917 22.085-5.917v-20.65l5.41-5.41L31.889 0l-4.395 7.612Z"/></svg>