<svg width="1908" height="869" viewBox="0 0 1908 869" xmlns="http://www.w3.org/2000/svg">
  <title>Discoliam</title>
  <path d="M125.25 86.375C125.25 78.5625 124.111 72.5404 121.832 68.3086C119.879 64.0768 116.461 60.9844 111.578 59.0312C106.695 57.0781 100.185 55.9388 92.0469 55.6133C84.2344 55.2878 74.4688 55.125 62.75 55.125V805.125C74.4688 805.125 84.2344 804.962 92.0469 804.637C100.185 804.311 106.695 803.172 111.578 801.219C116.461 799.266 119.879 796.173 121.832 791.941C124.111 787.71 125.25 781.688 125.25 773.875V86.375ZM187.75 773.875C187.75 793.406 184.169 808.543 177.008 819.285C169.846 829.702 160.406 837.352 148.688 842.234C136.969 847.117 123.622 850.047 108.648 851.023C93.6745 851.674 78.375 852 62.75 852H0.25V8.25H62.75C78.375 8.25 93.6745 8.73828 108.648 9.71484C123.622 10.3659 136.969 13.1328 148.688 18.0156C160.406 22.8984 169.846 30.7109 177.008 41.4531C184.169 51.8698 187.75 66.8438 187.75 86.375V773.875ZM320.562 8.25V852H258.062V8.25H320.562ZM500.25 646.434C500.25 611.928 498.46 582.306 494.879 557.566C491.298 532.827 486.578 511.342 480.719 493.113C474.859 474.559 468.186 458.445 460.699 444.773C453.212 431.102 445.562 418.243 437.75 406.199C429.938 394.155 422.288 382.111 414.801 370.066C407.314 358.022 400.641 344.35 394.781 329.051C388.922 313.751 384.202 296.173 380.621 276.316C377.04 256.134 375.25 232.046 375.25 204.051V86.375C375.25 78.5625 376.389 69.7734 378.668 60.0078C381.272 49.9167 385.992 40.6393 392.828 32.1758C399.664 23.3867 409.104 16.0625 421.148 10.2031C433.518 4.01823 449.469 0.925781 469 0.925781C488.531 0.925781 504.319 4.01823 516.363 10.2031C528.733 16.0625 538.336 23.3867 545.172 32.1758C552.008 40.6393 556.565 49.9167 558.844 60.0078C561.448 69.7734 562.75 78.5625 562.75 86.375V305.125H500.25V86.375C500.25 78.5625 499.273 72.2148 497.32 67.332C495.693 62.1237 493.414 58.2174 490.484 55.6133C487.555 52.6836 484.137 50.7305 480.23 49.7539C476.65 48.4518 472.906 47.8008 469 47.8008C465.094 47.8008 461.188 48.4518 457.281 49.7539C453.701 50.7305 450.445 52.6836 447.516 55.6133C444.586 58.2174 442.145 62.1237 440.191 67.332C438.564 72.2148 437.75 78.5625 437.75 86.375V181.59C437.75 218.374 440.842 249.135 447.027 273.875C453.212 298.615 460.862 320.262 469.977 338.816C479.417 357.046 489.508 373.647 500.25 388.621C510.992 403.595 520.921 419.871 530.035 437.449C539.475 454.702 547.288 474.884 553.473 497.996C559.658 520.783 562.75 549.266 562.75 583.445V773.875C562.75 777.781 562.262 784.943 561.285 795.359C560.309 805.451 556.891 815.867 551.031 826.609C545.172 837.352 535.895 846.792 523.199 854.93C510.504 863.393 492.438 867.625 469 867.625C445.562 867.625 427.496 863.393 414.801 854.93C402.105 846.792 392.828 837.352 386.969 826.609C381.109 815.867 377.691 805.451 376.715 795.359C375.738 784.943 375.25 777.781 375.25 773.875V492.625H437.75V773.875C437.75 777.781 437.913 782.501 438.238 788.035C438.564 793.243 439.703 798.289 441.656 803.172C443.609 808.055 446.702 812.286 450.934 815.867C455.165 819.122 461.188 820.75 469 820.75C476.812 820.75 482.835 819.122 487.066 815.867C491.298 812.286 494.391 808.055 496.344 803.172C498.297 798.289 499.436 793.243 499.762 788.035C500.087 782.501 500.25 777.781 500.25 773.875V646.434ZM797.125 352H734.625V86.375C734.625 78.5625 733.648 72.2148 731.695 67.332C730.068 62.1237 727.789 58.2174 724.859 55.6133C721.93 52.6836 718.512 50.7305 714.605 49.7539C711.025 48.4518 707.281 47.8008 703.375 47.8008C699.469 47.8008 695.562 48.4518 691.656 49.7539C688.076 50.7305 684.82 52.6836 681.891 55.6133C678.961 58.2174 676.52 62.1237 674.566 67.332C672.939 72.2148 672.125 78.5625 672.125 86.375V773.875C672.125 777.781 672.288 782.501 672.613 788.035C672.939 793.243 674.078 798.289 676.031 803.172C677.984 808.055 681.077 812.286 685.309 815.867C689.54 819.122 695.562 820.75 703.375 820.75C711.188 820.75 717.21 819.122 721.441 815.867C725.673 812.286 728.766 808.055 730.719 803.172C732.672 798.289 733.811 793.243 734.137 788.035C734.462 782.501 734.625 777.781 734.625 773.875V445.75H797.125V773.875C797.125 777.781 796.637 784.943 795.66 795.359C794.684 805.451 791.266 815.867 785.406 826.609C779.547 837.352 770.27 846.792 757.574 854.93C744.879 863.393 726.812 867.625 703.375 867.625C679.938 867.625 661.871 863.393 649.176 854.93C636.48 846.792 627.203 837.352 621.344 826.609C615.484 815.867 612.066 805.451 611.09 795.359C610.113 784.943 609.625 777.781 609.625 773.875V86.375C609.625 71.401 612.392 58.543 617.926 47.8008C623.46 36.7331 630.621 27.7812 639.41 20.9453C648.525 14.1094 658.616 9.0638 669.684 5.80859C680.751 2.55339 691.982 0.925781 703.375 0.925781C715.419 0.925781 726.975 2.71615 738.043 6.29688C749.436 9.8776 759.527 15.2487 768.316 22.4102C777.105 29.5716 784.104 38.5234 789.312 49.2656C794.521 60.0078 797.125 72.3776 797.125 86.375V352ZM1047.12 773.875C1047.12 777.781 1046.64 784.943 1045.66 795.359C1044.68 805.451 1041.27 815.867 1035.41 826.609C1029.55 837.352 1020.27 846.792 1007.57 854.93C994.879 863.393 976.812 867.625 953.375 867.625C929.938 867.625 911.871 863.393 899.176 854.93C886.48 846.792 877.203 837.352 871.344 826.609C865.484 815.867 862.066 805.451 861.09 795.359C860.113 784.943 859.625 777.781 859.625 773.875V86.375C859.625 83.7708 859.788 79.8646 860.113 74.6562C860.439 69.4479 861.415 63.7513 863.043 57.5664C864.671 51.056 867.438 44.5456 871.344 38.0352C875.25 31.1992 880.621 25.0143 887.457 19.4805C894.293 13.9466 903.082 9.55208 913.824 6.29688C924.566 2.71615 937.75 0.925781 953.375 0.925781C969 0.925781 982.184 2.71615 992.926 6.29688C1003.67 9.55208 1012.46 13.9466 1019.29 19.4805C1026.13 25.0143 1031.5 31.1992 1035.41 38.0352C1039.31 44.5456 1042.08 51.056 1043.71 57.5664C1045.33 63.7513 1046.31 69.4479 1046.64 74.6562C1046.96 79.8646 1047.12 83.7708 1047.12 86.375V773.875ZM922.125 773.875C922.125 777.781 922.288 782.501 922.613 788.035C922.939 793.243 924.078 798.289 926.031 803.172C927.984 808.055 931.077 812.286 935.309 815.867C939.54 819.122 945.562 820.75 953.375 820.75C961.188 820.75 967.21 819.122 971.441 815.867C975.673 812.286 978.766 808.055 980.719 803.172C982.672 798.289 983.811 793.243 984.137 788.035C984.462 782.501 984.625 777.781 984.625 773.875V86.375C984.625 82.4688 984.462 78.237 984.137 73.6797C983.811 69.1224 982.672 65.0534 980.719 61.4727C978.766 57.5664 975.673 54.3112 971.441 51.707C967.21 49.1029 961.188 47.8008 953.375 47.8008C945.562 47.8008 939.54 49.1029 935.309 51.707C931.077 54.3112 927.984 57.5664 926.031 61.4727C924.078 65.0534 922.939 69.1224 922.613 73.6797C922.288 78.237 922.125 82.4688 922.125 86.375V773.875ZM1172.12 8.25V805.125H1234.62V852H1109.62V8.25H1172.12ZM1367.44 8.25V852H1304.94V8.25H1367.44ZM1609.62 852H1547.12L1539.31 648.875H1492.93L1484.62 852H1422.12L1469 8.25H1562.75L1609.62 852ZM1531.5 414.5L1515.88 39.5L1500.25 414.5L1492.93 602H1539.31L1531.5 414.5ZM1828.38 8.25H1890.88L1906.5 852H1844V273.875L1797.12 805.125H1765.88L1719 273.875V852H1656.5L1672.12 8.25H1734.62L1781.5 586.375L1828.38 8.25Z" fill="currentColor"/>
</svg>