<svg width="231" height="248" viewBox="0 0 231 248" fill="none" xmlns="http://www.w3.org/2000/svg">
  <path fill-rule="evenodd" clip-rule="evenodd" d="M164.528 188.625C195.536 184.922 222.536 165.817 225.928 148.36C231.275 120.86 230.833 81.25 230.833 81.25C230.833 27.5648 195.66 11.8293 195.66 11.8293C177.925 3.68427 147.471 0.258139 115.834 5.72205e-06H115.056C83.418 0.258139 52.9839 3.68427 35.2485 11.8293C35.2485 11.8293 0.0741444 27.5658 0.0741444 81.2511C0.0741444 84.5057 0.0573226 87.9289 0.0398107 91.4926C-0.00882341 101.39 -0.0627805 112.37 0.223478 123.83C1.50028 176.332 9.848 228.074 58.3898 240.922C80.7706 246.847 99.9865 248.086 115.464 247.236C143.528 245.68 159.282 237.22 159.282 237.22L158.358 216.857C158.358 216.857 138.301 223.182 115.777 222.41C93.4617 221.644 69.9034 220.004 66.2938 192.605C65.9599 190.198 65.7935 187.625 65.7935 184.922C65.7935 184.922 87.7007 190.277 115.463 191.549C132.439 192.327 148.359 190.554 164.528 188.625ZM189.344 150.419V85.4154C189.344 72.13 185.962 61.5722 179.168 53.7621C172.16 45.9509 162.984 41.9477 151.595 41.9477C138.415 41.9477 128.434 47.0133 121.837 57.1445L115.421 67.8986L109.007 57.1445C102.408 47.0122 92.428 41.9477 79.2494 41.9477C67.8585 41.9477 58.683 45.9519 51.6761 53.7621C44.8814 61.5733 41.499 72.13 41.499 85.4154V150.419H67.2526V87.3258C67.2526 74.0255 72.8483 67.2756 84.0419 67.2756C96.4174 67.2756 102.621 75.2831 102.621 91.1177V125.653H128.223V91.1177C128.223 75.2831 134.426 67.2756 146.801 67.2756C157.995 67.2756 163.591 74.0255 163.591 87.3258V150.419H189.344Z" fill="currentColor"/>
</svg>
