<svg fill="none" xmlns="http://www.w3.org/2000/svg" viewBox="0 0 616 90">
  <path d="M0 47C0 22.3 18.1 4.9 41 4.9S82.1 22.3 82.1 47C82.1 71.7 64 89.1 41 89.1S0 71.7 0 47Zm69.5 0c0-18.6-12.1-31-28.5-31S12.6 28.4 12.6 47s12.1 30.9 28.5 30.9S69.5 65.6 69.5 47Zm69.4 41.2-21.5-27.3h-9.5v27.3H96.1V2.3h11.8v48.4h9.6L138 26.4h13.9l-24.5 28.9 25.9 32.8h-14.4v.1Zm66.3-61.8H217v61.8h-11.8v-8.8c-4.4 6.1-11.9 9.8-20.5 9.8-13.4 0-22.2-8.8-22.2-23.6V26.4h11.8v36.1c0 10.8 5.5 15.9 14 15.9 9.5 0 16.9-6.5 16.9-18.5V26.4Zm53 35.6h12.4c.9 10.2 8.8 16.1 20.6 16.1s17.9-5.9 17.9-13.3c0-6.4-4.4-10.6-16.8-12.9L281.6 50c-14.8-2.7-22.2-10-22.2-21.1 0-13.8 11.8-24.1 30-24.1 17.9 0 29.8 9.9 30.9 24.8h-12.5c-1.2-8.9-7.9-14-18.8-14s-17.2 5.2-17.2 12.6c0 5.9 3.9 9.4 16 11.6l10.6 2c15.4 2.8 22.9 10.6 22.9 22.1 0 14.5-11.9 25.1-30.9 25.1-19 .1-31.7-10.7-32.2-27Zm110.6-25.4h-17.4v32.6c0 6.2 2.4 8.6 8.6 8.6h8.8v10.4h-12.2c-11.1 0-16.9-5.9-16.9-16.9V36.6h-10.5V26.4h6.1c3.2 0 4.4-1.2 4.4-4.4V10.4h11.8v16h17.4v10.2h-.1Zm54.3-10.2h11.8v61.8h-11.8v-8.8c-4.4 6.1-11.9 9.8-20.5 9.8-13.4 0-22.2-8.8-22.2-23.6V26.4h11.8v36.1c0 10.8 5.5 15.9 14 15.9 9.5 0 16.9-6.5 16.9-18.5V26.4Zm75.5-24.1h11.8v85.9h-11.6V79c-4.1 6.1-12 10.1-21.1 10.1-16.5 0-29.3-13.1-29.3-31.8 0-18.8 12.8-31.9 29.3-31.9 8.9 0 16.8 3.9 20.9 10V2.3Zm.3 55c0-12.8-8-21.4-19.3-21.4-11.4 0-19.3 8.6-19.3 21.4 0 12.7 7.9 21.3 19.3 21.3 11.3 0 19.3-8.6 19.3-21.3Zm26.4-48.8c0-4.6 3.8-8 8.1-8 4.5 0 8.1 3.4 8.1 8 0 4.5-3.6 8-8.1 8-4.4 0-8.1-3.5-8.1-8Zm2.2 79.7V26.4h11.8v61.8h-11.8Zm25.1-30.9c0-18.6 13.6-31.9 31.3-31.9 17.7 0 31.3 13.3 31.3 31.9 0 18.5-13.6 31.8-31.3 31.8-17.7 0-31.3-13.3-31.3-31.8Zm50.5 0c0-12.8-8-21.4-19.3-21.4-11.4 0-19.3 8.6-19.3 21.4 0 12.7 7.9 21.3 19.3 21.3 11.3 0 19.3-8.6 19.3-21.3Z" fill="currentColor"/>
</svg>