<svg width="225" height="82" fill="none" xmlns="http://www.w3.org/2000/svg"><g clip-path="url(#a)" fill-rule="evenodd" clip-rule="evenodd" fill="currentColor"><path d="M48.171 81.042c.624.638 1.37.957 2.243.957.84 0 1.57-.32 2.194-.957.623-.638.932-1.38.932-2.219a3.03 3.03 0 0 0-.908-2.218c-.603-.608-1.344-.908-2.218-.908a3.11 3.11 0 0 0-2.243.908 2.976 2.976 0 0 0-.932 2.218c0 .845.31 1.58.932 2.219Zm10.959-2.007c1.928 1.977 4.25 2.964 6.958 2.964 2.739 0 5.04-.982 6.91-2.94l.093.187c.094.157.172.294.236.422.064.127.162.28.304.466.143.186.28.358.422.515.138.157.32.319.535.49.216.173.452.32.702.443.25.122.535.225.864.304a4.29 4.29 0 0 0 1 .118c.81 0 1.64-.202 2.499-.609.854-.402 1.438-.731 1.752-.981l.746-.609v-1.54h-3.642V43.945h-2.1l-7.47 1.777v2.007h3.971v9.947c-.967-.28-2.1-.422-3.41-.422-3.671 0-6.803 1.153-9.384 3.455-2.586 2.302-3.877 5.555-3.877 9.756-.005 3.74.957 6.596 2.89 8.569Zm5.04-16.558c1.462-1.772 3.376-2.655 5.741-2.655 1.026 0 2.022.157 2.99.466v16.44c-1.498 1.148-3.112 1.723-4.854 1.723-1.65 0-3.077-.697-4.275-2.096-1.197-1.399-1.796-3.43-1.796-6.1 0-3.415.731-6.007 2.194-7.778Zm22.56 15.836C88.892 80.772 91.857 82 95.621 82c2.615 0 5.368-.638 8.264-1.914l-.795-2.194c-1.929.687-3.72 1.026-5.369 1.026-2.586 0-4.623-.889-6.115-2.67s-2.35-3.94-2.566-6.478h15.782c0-1.712-.186-3.297-.559-4.765a12.67 12.67 0 0 0-1.752-3.97c-.795-1.183-1.865-2.11-3.22-2.778-1.354-.667-2.934-1.006-4.74-1.006-3.455 0-6.164 1.158-8.122 3.48-1.963 2.316-2.94 5.192-2.94 8.612-.004 3.524 1.075 6.513 3.24 8.971Zm3.876-16.312c.982-1.453 2.248-2.18 3.803-2.18 1.433 0 2.538.683 3.313 2.042.78 1.36 1.212 2.97 1.306 4.824l-9.992.746c.069-2.169.589-3.975 1.57-5.432Zm17.378-1.149 8.872 20.779h2.802l8.171-20.636 3.734-1.026v-2.007h-9.662v2.007l3.268.888-5.417 13.54-5.791-13.682 3.317-.746v-2.007h-12.421v2.007l3.127.883ZM17.554 37.297a12.339 12.339 0 0 0 3.99-2.592c1.138-1.104 2.021-2.419 2.66-3.945.637-1.526.956-3.175.956-4.952 0-1.806-.319-3.464-.957-4.971a11.582 11.582 0 0 0-2.66-3.896 12.33 12.33 0 0 0-3.99-2.548c-1.525-.608-3.174-.912-4.95-.912-1.777 0-3.431.304-4.972.912-1.54.609-2.87 1.458-3.99 2.547-1.119 1.09-2.007 2.39-2.66 3.897C.33 22.349 0 24.002 0 25.808s.329 3.47.982 4.996c.652 1.526 1.54 2.832 2.66 3.921 1.118 1.09 2.448 1.948 3.99 2.567 1.54.623 3.199.932 4.97.932 1.772 0 3.426-.304 4.952-.927ZM8.799 18.992c.854-1.65 2.125-2.474 3.803-2.474 1.679 0 2.95.825 3.804 2.474.854 1.649 1.285 3.92 1.285 6.816 0 2.925-.427 5.222-1.285 6.885-.86 1.664-2.125 2.498-3.804 2.498-1.678 0-2.949-.834-3.803-2.498-.854-1.663-1.28-3.96-1.28-6.885 0-2.89.426-5.162 1.28-6.816Zm20.18-1.541v13.584c0 4.794 2.58 7.189 7.748 7.189 2.086 0 4.064-.495 5.929-1.492l-.746-2.615c-1.306.559-2.351.839-3.126.839-1.06 0-1.757-.31-2.1-.933-.344-.623-.516-1.698-.516-3.219V17.451h5.79v-3.269l-5.79.236v-4.48H34.44l-7.936 5.648v1.87h2.474v-.005Zm17.44 19.144c1.448 1.09 3.244 1.634 5.394 1.634 2.459 0 4.73-.795 6.816-2.38 1.154 1.59 2.91 2.38 5.276 2.38.996 0 1.963-.201 2.895-.609.933-.402 1.541-.73 1.82-.981.28-.25.496-.452.653-.609v-2.007h-3.64V21.51c0-5.354-3.348-8.028-10.036-8.028-1.62 0-3.284.21-4.996.628-1.713.422-2.866.756-3.455 1.006l-1.399.608c0 2.552 1.06 4.437 3.175 5.649l5.929-5.133c.687 0 1.26.103 1.727.304.466.201.82.427 1.05.677.23.25.413.668.535 1.261.123.594.192 1.1.211 1.517.015.422.025 1.099.025 2.031v1.4c-4.981 0-8.583.706-10.806 2.124-2.229 1.418-3.338 3.48-3.338 6.188-.01 2.145.717 3.764 2.165 4.854Zm7.352-8.892c1.34-.918 2.88-1.38 4.623-1.38v6.395c-.933 1.025-2.1 1.54-3.504 1.54-.874 0-1.61-.264-2.218-.794-.609-.53-.913-1.247-.913-2.15.005-1.487.672-2.694 2.012-3.611Zm31.427 9.824v-2.473l-3.032-.933V.177h-3.69l-7.47 1.776v2.473h3.97v29.695l-3.97.933v2.473h14.192Zm4.623 0h10.271v-2.473l-3.734-.888-6.581-10.694 5.369-5.928 4.25-.888v-2.474H88.422v2.474l2.803.702-8.22 8.916 6.816 11.253Zm15.787-19.934v13.304c0 4.888 2.381 7.332 7.146 7.332 3.204 0 5.913-1.01 8.121-3.033.903 2.022 2.474 3.033 4.716 3.033.467 0 .972-.044 1.517-.137a7.984 7.984 0 0 0 1.585-.442c.515-.201.982-.402 1.398-.609.423-.2.972-.534 1.659-1v-2.008h-3.641v-19.84h-10.271v2.473l3.033.932v14.335c-.594.78-1.37 1.398-2.336 1.87-.967.466-1.9.701-2.803.701-1.182 0-1.967-.304-2.355-.913-.388-.608-.584-1.702-.584-3.292V14.192h-11.16v2.474l3.975.927Z"/><path opacity=".5" d="M171.36 75.777 139 59.08V23.834l32.36 16.703v35.24ZM225 58.734l-32.364-16.706V6.786L225 23.486v35.248Z"/><path d="M184.808 0 139 23.64v35.247l45.808-23.644V0ZM179.193 47.121v35.243L225 58.724V23.478l-45.807 23.644Z"/></g><defs><clipPath id="a"><path fill="#fff" d="M0 0h225v82H0z"/></clipPath></defs></svg>