<svg xmlns="http://www.w3.org/2000/svg" fill="none" viewBox="0 0 1560 191"><path fill="currentColor" d="M60.041 95.45c-5.36-2.5-11.079-4.288-16.797-5.717-5.36-1.43-10.722-3.574-16.082-6.433-3.217-1.787-5.361-5.361-5.004-8.935 0-3.574 1.43-7.148 4.289-9.292 3.216-2.502 6.79-3.574 10.721-3.574 4.289-.357 8.22 1.072 11.437 3.931 3.216 2.86 5.003 6.79 5.36 11.08h19.657c-.357-8.935-4.646-17.513-11.437-23.23-7.147-5.72-16.082-8.578-25.374-8.22-6.433 0-12.866 1.429-18.584 4.288-5.004 2.502-8.935 6.075-11.794 10.721-2.502 4.29-3.931 9.293-3.931 14.296-.358 5.718 1.43 11.079 4.646 15.725 2.859 3.931 6.79 7.148 11.079 8.935 5.36 2.502 11.079 4.646 16.44 6.075 5.718 1.43 11.079 3.574 16.082 6.433 3.217 1.787 5.361 5.361 5.004 9.292 0 3.217-1.43 6.433-4.29 8.22-3.573 2.502-7.862 3.574-12.15 3.574-4.646 0-9.292-1.429-13.224-4.646-3.574-2.859-6.075-7.148-6.433-12.151H0c.357 9.292 4.289 18.227 11.794 24.302 7.862 6.076 17.512 9.293 27.519 8.935 6.433 0 12.508-1.072 18.584-3.574 5.003-2.144 9.65-5.718 12.866-10.007 3.216-4.288 4.646-9.292 4.646-14.653.357-5.718-1.43-11.436-4.646-16.082-2.502-4.289-6.433-7.505-10.722-9.292ZM160.825 51.489a53.665 53.665 0 0 0-52.893 0c-7.863 4.646-14.296 11.079-18.585 18.941-8.934 16.44-8.934 36.454 0 52.894 4.29 7.862 10.722 14.295 18.585 18.941a53.665 53.665 0 0 0 52.893 0c7.863-4.646 14.296-11.079 18.584-18.941 8.935-16.44 8.935-36.454 0-52.894-4.288-7.862-10.721-14.295-18.584-18.941Zm1.43 62.9c-2.502 5.003-6.433 9.292-11.437 12.151-10.364 5.718-22.873 5.718-32.879 0-5.004-2.859-8.935-7.148-11.437-12.151a38.633 38.633 0 0 1 0-35.382c2.502-5.003 6.433-9.292 11.437-12.15 15.01-8.935 34.309-4.29 43.244 10.364.357.714.714 1.072 1.072 1.786 5.718 11.437 5.718 24.303 0 35.382ZM326.654 50.062c-6.79-3.574-14.295-5.718-21.801-5.36-5.718 0-11.079 1.071-16.082 3.216-4.289 1.787-7.863 4.288-11.079 7.505-2.144 2.144-3.931 4.646-5.004 7.148h-.357c-1.072-2.86-2.859-5.361-5.003-7.148-3.217-3.217-7.148-5.718-11.079-7.505-5.004-2.145-10.722-3.574-16.083-3.217-9.292-.357-17.869 4.646-22.515 12.866l-1.073-10.721h-17.512v100.068h19.657V89.017c-.358-6.79 1.429-13.58 5.718-19.299 8.935-8.934 23.588-9.292 32.88 0l.357.358c3.931 5.718 6.076 12.508 5.718 19.656v57.54h19.657v-57.54c-.358-7.148 1.429-13.938 5.718-19.656 8.935-9.292 23.587-9.292 32.522-.358l.358.358c3.931 5.718 6.075 12.508 5.718 19.299v57.897h19.656V87.945c0-7.862-1.429-15.367-5.003-22.158-4.289-6.79-9.292-12.151-15.368-15.725ZM433.512 51.492c-7.148-4.646-15.726-6.79-23.945-6.79-9.293 0-18.227 2.144-26.09 6.79-7.505 4.288-13.938 10.721-17.869 18.584-4.289 8.22-6.433 17.512-6.433 27.161a60.679 60.679 0 0 0 6.433 27.162c4.288 7.862 10.364 14.295 18.227 18.584 7.862 4.646 16.797 6.79 25.732 6.79 10.364.358 20.371-2.859 28.591-8.934 8.22-5.719 13.938-13.939 16.797-23.231h-20.014c-4.646 9.65-14.653 15.368-25.374 14.296-7.148 0-14.296-2.502-19.657-7.148-5.718-5.003-9.292-11.794-10.364-19.299h77.553c.358-2.502.358-5.003.358-7.862 0-9.293-2.145-18.227-6.433-26.447-3.932-8.577-10.007-15.01-17.512-19.656Zm-53.966 36.81c1.072-7.147 5.003-13.938 10.364-18.584 5.361-4.646 12.509-7.147 19.657-6.79 7.147 0 13.938 2.502 18.941 7.505 5.004 4.646 8.22 11.08 8.935 18.227l-57.897-.357ZM495.34 13.248h-20.014v33.595h-17.869V63.64h17.869l.358 51.106a33.113 33.113 0 0 0 9.649 24.66c6.791 6.076 15.725 9.292 24.66 8.935 4.289 0 8.577-.358 12.866-1.43v-16.44l-7.505.358c-5.361.357-10.722-1.072-15.368-3.931-3.574-3.932-5.361-8.935-4.646-14.296V63.64h28.949V46.843H495.34V13.248ZM605.775 49.706c-5.719-3.216-12.152-5.003-18.942-5.003-6.075 0-12.151 1.43-17.512 3.931-5.718 2.86-10.722 7.148-13.938 12.866V1.46h-19.656v145.457h19.299l.357-54.68c0-5.361 1.429-10.722 3.931-15.368 2.502-4.289 5.718-7.863 10.007-10.364 3.574-2.145 7.863-3.574 12.151-3.574 6.433 0 12.509 2.502 16.44 7.148 5.004 5.718 7.148 13.58 6.791 21.085v56.11h19.656V87.59c.357-7.863-1.43-16.083-5.004-23.23-2.859-6.434-7.862-11.437-13.58-14.654ZM663.671 46.844h-19.656v100.068h19.656V46.844ZM654.019 2.17c-3.574 0-6.79 1.43-8.935 3.574-2.501 2.502-3.931 5.718-3.574 8.934 0 3.217 1.43 6.79 3.574 8.935 5.004 5.004 13.224 5.004 18.227 0 2.502-2.502 3.931-5.718 3.574-8.934 0-3.574-1.43-6.79-3.574-8.935-2.502-2.502-6.076-3.574-9.292-3.574ZM748.728 50.06c-7.148-3.574-15.01-5.718-22.873-5.361-10.007-.357-19.299 4.646-25.017 12.866l-1.072-10.722h-17.155v100.069h19.657V89.015c-.358-7.148 1.787-13.938 6.075-19.656a25.939 25.939 0 0 1 35.382 0c4.288 5.718 6.433 12.508 6.075 19.656v57.897h19.657V87.585c0-7.862-1.787-15.367-5.361-22.158a39.699 39.699 0 0 0-15.368-15.367ZM865.596 61.858c-3.574-5.718-8.935-10.007-15.01-12.866-6.076-2.86-12.866-4.646-20.014-4.646-8.577 0-16.797 2.144-23.945 6.075-7.505 4.289-13.581 10.365-17.869 17.87-4.646 8.577-6.791 17.87-6.791 27.519-.357 9.649 2.145 19.299 6.791 27.518 4.288 7.506 10.364 13.581 17.869 17.87 7.505 4.289 15.725 6.433 23.945 6.076 6.79 0 13.581-1.43 19.656-4.289 5.719-2.859 11.079-6.791 14.653-12.151v11.793c.715 8.22-2.501 16.083-8.22 22.159-5.718 5.003-12.866 7.862-20.371 7.505-6.79.357-13.938-1.43-19.656-5.004-5.004-2.859-8.935-7.862-10.007-13.581h-20.728c1.429 10.722 7.505 20.729 16.439 27.162 10.365 6.79 22.158 10.007 34.31 9.65 7.862 0 16.082-1.787 23.23-5.004 7.505-3.574 13.581-8.935 18.227-15.725 5.003-7.863 7.505-17.155 7.147-26.804V46.133h-17.154l-2.502 15.725Zm-4.646 52.536c-5.361 10.007-16.082 16.082-27.161 16.082-5.719 0-11.079-1.429-15.725-3.931-5.004-2.859-8.935-6.79-11.794-11.794-3.217-5.361-4.646-11.794-4.646-18.227s1.429-12.508 4.646-18.226c2.859-5.004 6.79-8.935 11.794-11.794 5.003-2.86 10.364-3.932 15.725-3.932 11.436 0 21.8 6.076 27.161 16.083 6.076 11.079 6.076 24.302 0 35.739ZM931.711 35.05c0-11.793 6.076-17.511 17.87-17.511 2.144 0 3.931 0 6.075.357V1.456C952.082.384 948.151.026 944.22.026c-8.578-.357-17.155 2.86-23.23 9.293-6.433 6.79-9.65 16.082-8.935 25.375v12.15h-19.299v16.798h19.299v83.629h19.656V63.642h27.876V46.845h-27.876V35.05ZM1044.65 62.213c-3.58-5.718-8.94-10.007-15.01-12.866-6.08-3.216-13.23-4.646-20.02-4.646-8.58 0-16.795 2.145-23.943 6.076-7.505 4.288-13.581 10.364-17.87 18.227-4.646 8.577-6.79 18.226-6.79 27.876-.357 9.649 2.144 19.299 6.79 27.876 4.289 7.505 10.365 13.938 17.87 18.227 7.505 4.289 15.723 6.433 23.943 6.076 6.79 0 13.94-1.43 20.02-4.646 6.07-2.86 11.07-7.506 15.01-12.866l1.78 15.367h17.16V46.846h-17.16l-1.78 15.367Zm-4.29 52.894c-5.36 10.007-16.09 16.082-27.16 16.082-5.72 0-11.08-1.429-15.729-3.931-5.004-2.859-8.935-6.791-11.794-11.794a38.73 38.73 0 0 1 0-36.454c2.859-5.003 6.79-8.934 11.794-11.793 4.999-2.86 10.359-4.289 15.729-3.932 11.43 0 21.8 6.076 27.16 16.083 5.72 10.722 5.72 24.302 0 35.739ZM1269.44 46.844h-19.66v100.068h19.66V46.844ZM1259.79 2.17c-3.57 0-6.79 1.43-8.93 3.574-2.5 2.502-3.93 5.718-3.58 8.934 0 3.217 1.43 6.79 3.58 8.935 5 5.004 13.22 5.004 18.22 0 2.51-2.502 3.94-5.718 3.58-8.934 0-3.574-1.43-6.79-3.58-8.935-2.85-2.502-6.07-3.574-9.29-3.574ZM1310.54 1.459h-19.66v145.457h19.66V1.459ZM1351.64 46.844h-19.66v100.068h19.66V46.844ZM1448.85 62.213c-3.57-5.718-8.93-10.007-15.01-12.866-6.07-3.216-13.22-4.646-20.01-4.646-8.58 0-16.8 2.145-23.95 6.076-7.5 4.288-13.58 10.364-17.87 18.227-4.64 8.577-7.15 18.226-6.79 27.876-.36 9.649 2.15 19.299 6.79 27.876 4.29 7.505 10.37 13.938 17.87 18.227 7.51 4.289 15.73 6.433 23.95 6.076 6.79 0 13.94-1.43 20.01-4.646 6.08-2.86 11.08-7.506 15.01-12.866l1.79 15.367h17.15V46.846h-17.15l-1.79 15.367Zm-4.65 52.894c-5.36 10.007-16.08 16.082-27.16 16.082-5.71 0-11.08-1.429-15.72-3.931-5.01-2.859-8.94-6.791-11.8-11.794a38.763 38.763 0 0 1 0-36.454c2.86-5.003 6.79-8.934 11.8-11.793 5-2.86 10.36-4.289 15.72-3.932 11.44 0 21.8 6.076 27.16 16.083 6.08 10.722 6.08 24.302 0 35.739ZM1536.06 46.132c-3.58-1.43-7.15-2.145-11.08-1.43-8.22 1.072-15.01 5.718-18.59 13.224l-1.07-11.08h-17.15v100.069h19.65V88.304c-.71-6.79 1.43-13.581 5.36-18.942 4.29-3.931 9.65-6.075 15.37-5.718 3.93 0 6.43 0 7.86.357l-.35-17.87ZM1556.07 126.544c-5-5.361-13.58-5.361-18.94 0-2.5 2.502-3.93 6.076-3.93 9.65 0 3.573 1.43 6.79 3.93 9.292a13.826 13.826 0 0 0 18.94 0c2.5-2.502 3.93-5.719 3.93-9.292 0-3.574-1.07-7.148-3.93-9.65ZM1211.55 50.062c-6.79-3.574-14.3-5.718-21.8-5.36-5.72 0-11.08 1.071-16.09 3.216-4.28 1.787-7.86 4.288-11.07 7.505-2.15 2.144-3.94 4.646-5.01 7.148h-.36c-1.07-2.86-2.85-5.361-5-7.148-3.22-3.217-7.15-5.718-11.08-7.505-5-2.145-10.72-3.574-16.08-3.217-9.29-.357-17.87 4.646-22.52 12.866l-1.07-10.721h-17.15v100.068h19.65V89.017c-.35-6.79 1.43-13.58 5.72-19.299 8.94-8.934 23.59-9.292 32.88 0l.36.358c3.93 5.718 6.07 12.508 5.72 19.656v57.54h19.65v-57.54c-.35-7.148 1.43-13.938 5.72-19.656 8.94-9.292 23.59-9.292 32.52-.358l.36.358c3.93 5.718 6.08 12.508 5.72 19.299v57.897h19.66V87.945c0-7.862-1.43-15.367-5.01-22.158-4.29-6.79-9.29-12.151-15.72-15.725Z"/></svg>