<svg xmlns="http://www.w3.org/2000/svg" width="332" height="216" style="width:100%;height:100%;transform:translate3d(0,0,0)"><defs><clipPath id="a"><path d="M0 0h332v216H0z"/></clipPath></defs><g clip-path="url(#a)"><path fill="currentColor" d="M11.976-34.392.297-10.145l-12.273-24.247h-21.872L-9.699 9.352v25.04H9.699V9.352l24.149-43.744H11.976z" style="display:block" transform="matrix(1.1456 0 0 1.1456 45.916 107.023)"/><path fill="currentColor" d="M-11.381-13.114c2.87-3.167 6.73-4.75 11.382-4.75 4.651 0 8.51 1.583 11.381 4.75 2.87 3.266 4.355 7.621 4.355 13.163 0 5.543-1.485 9.898-4.355 13.065-2.871 3.167-6.73 4.75-11.381 4.75-4.652 0-8.512-1.583-11.382-4.75-2.87-3.167-4.355-7.522-4.355-13.065 0-5.542 1.485-9.897 4.355-13.163M-36.025.049c0 10.392 3.365 18.904 10.194 25.634 6.829 6.729 15.44 10.095 25.832 10.095 10.391 0 19.001-3.366 25.83-10.095C32.66 18.953 36.025 10.441 36.025.049S32.66-18.854 25.831-25.683c-6.829-6.73-15.439-10.095-25.83-10.095-10.392 0-19.003 3.365-25.832 10.095-6.829 6.829-10.194 15.34-10.194 25.732" style="display:block" transform="matrix(1.1456 0 0 1.1456 117.337 108.008)"/><path fill="currentColor" d="M8.462-34.64-11.332-5.938V-34.64H-30.73v68.785h19.398V13.658l3.563-4.75 3.563 5.343C.94 22.07 5.592 27.414 9.848 30.285c4.256 2.869 9.303 4.355 15.241 4.355 1.781 0 3.365-.297 4.751-.792V15.934c-.891.099-1.881.199-2.772.199-2.276 0-4.354-.694-6.235-2.178-1.88-1.486-4.354-4.453-7.522-8.907L7.274-3.464 30.73-34.64H8.462z" style="display:block" transform="matrix(1.1456 0 0 1.1456 198.757 107.775)"/><path fill="currentColor" d="M-6.73 8.165h26.524V-8.561H-6.73v-9.105h32.067v-16.726h-51.466v68.784h52.258V17.667H-6.73V8.165z" style="display:block" transform="matrix(1.1456 0 0 1.1456 271.452 107.003)"/></g></svg>